<?xml version="1.0" encoding="UTF-8"?>
<!DOCTYPE svg PUBLIC "-//W3C//DTD SVG 1.1//EN" "http://www.w3.org/Graphics/SVG/1.1/DTD/svg11.dtd">
<svg version="1.1" xmlns="http://www.w3.org/2000/svg" xmlns:xlink="http://www.w3.org/1999/xlink" x="0" y="0" width="936.311" height="694.773" viewBox="0, 0, 936.311, 694.773">
  <defs>
    <clipPath id="Clip_1">
      <path d="M616.177,34.228 C638.652,34.237 661.129,34.243 683.603,34.593 C756.096,35.822 808.936,39.927 868.936,43.927 C917.07,47.136 944.734,51.534 956.936,62.593 C967.225,71.918 967.603,86.591 968.936,105.26 C972.936,161.26 979.729,236.483 978.936,358.593 C977.936,512.593 972.936,633.26 963.603,682.593 L951.603,695.927 L906.27,703.927 C825.515,721.074 718.691,721.918 620.936,727.593 C576.033,730.2 444.224,728.782 404.936,726.593 C297.114,720.588 190.272,720.083 107.603,702.593 C87.642,698.37 80.068,695.355 72.936,685.26 C59.681,666.494 57.585,607.187 51.603,550.593 C43.581,474.712 38.138,240.407 48,180 C48.639,176.089 48.423,164.857 50.27,151.927 C56.33,109.485 55.456,61.23 73.936,56.593 C122.112,44.507 338,36 338,36 C430.723,35.121 523.449,34.31 616.177,34.228 z"/>
    </clipPath>
    <filter id="Shadow_2">
      <feGaussianBlur in="SourceAlpha" stdDeviation="25"/>
      <feOffset dx="0" dy="0" result="offsetblur"/>
      <feFlood flood-color="#000000"/>
      <feComposite in2="offsetblur" operator="in"/>
    </filter>
  </defs>
  <g id="Layer_1" transform="translate(-42.689, -34.227)">
    <g id="path2529">
      <path d="M-8.311,-16.772 L1030,-16.772 L1030,780 L-8.311,780 z M616.177,34.228 C523.449,34.31 430.723,35.121 338,36 C338,36 122.112,44.507 73.936,56.593 C55.456,61.23 56.33,109.485 50.27,151.927 C48.423,164.857 48.639,176.089 48,180 C38.138,240.407 43.581,474.712 51.603,550.593 C57.585,607.187 59.681,666.494 72.936,685.26 C80.068,695.355 87.642,698.37 107.603,702.593 C190.272,720.083 297.114,720.588 404.936,726.593 C444.224,728.782 576.033,730.2 620.936,727.593 C718.691,721.918 825.515,721.074 906.27,703.927 L951.603,695.927 L963.603,682.593 C972.936,633.26 977.936,512.593 978.936,358.593 C979.729,236.483 972.936,161.26 968.936,105.26 C967.603,86.591 967.225,71.918 956.936,62.593 C944.734,51.534 917.07,47.136 868.936,43.927 C808.936,39.927 756.096,35.822 683.603,34.593 C661.129,34.243 638.652,34.237 616.177,34.228 z" fill="rgba(0,0,0,0.75)" clip-path="url(#Clip_1)" filter="url(#Shadow_2)"/>
      <path d="M-8.311,-4.272 L1030,-4.272 L1017.5,-16.772 L1017.5,780 L1030,767.5 L-8.311,767.5 L4.189,780 L4.189,-16.772 L-8.311,-4.272 z M-8.311,-29.272 C-15.215,-29.272 -20.811,-23.676 -20.811,-16.772 L-20.811,780 C-20.811,786.904 -15.215,792.5 -8.311,792.5 L1030,792.5 C1036.903,792.5 1042.5,786.904 1042.5,780 L1042.5,-16.772 C1042.5,-23.676 1036.903,-29.272 1030,-29.272 L-8.311,-29.272 z M616.165,21.728 C536.982,21.798 463.48,22.31 337.881,23.501 C337.757,23.502 337.632,23.505 337.508,23.51 C337.369,23.515 337.104,23.526 336.712,23.541 C336.062,23.568 335.294,23.599 334.414,23.635 C331.902,23.739 328.988,23.861 325.708,24.003 C316.339,24.408 305.901,24.883 294.66,25.426 C262.539,26.976 230.416,28.753 200.418,30.732 C136.072,34.977 90.7,39.5 70.894,44.469 C64.23,46.141 58.956,50.406 55.026,56.51 C52.038,61.151 49.795,66.864 47.985,73.84 C45.328,84.088 43.878,94.77 41.664,116.781 C41.559,117.821 41.186,121.548 41.198,121.423 C41.011,123.289 40.868,124.703 40.727,126.085 C40.368,129.61 40.054,132.578 39.74,135.41 C39.133,140.866 38.537,145.664 37.895,150.159 C37.258,154.62 36.812,159.103 36.484,163.905 C36.36,165.731 36.256,167.534 36.152,169.601 C36.105,170.536 35.96,173.601 35.93,174.193 C35.82,176.375 35.728,177.588 35.663,177.986 C30.945,206.887 29.329,274.948 30.596,359.681 C31.748,436.686 35.166,514.006 39.172,551.907 C39.529,555.284 39.884,558.786 40.246,562.483 C40.735,567.479 41.223,572.693 41.797,579.012 C42.113,582.487 43.163,594.182 43.271,595.377 C45.759,622.913 47.386,637.86 49.692,651.891 C52.814,670.891 56.708,683.952 62.727,692.472 C71.769,705.273 81.082,709.759 105.016,714.823 C134.71,721.105 168.563,725.525 209.36,728.812 C240.593,731.33 268.324,732.805 325.768,735.332 C368.149,737.196 382.666,737.872 404.241,739.074 C449.122,741.574 580.107,742.485 621.661,740.072 C640.261,738.992 655.712,738.239 689.544,736.693 C694.554,736.465 695.994,736.399 698.405,736.288 C750.067,733.92 778.301,732.336 808.473,729.815 C847.649,726.541 880.389,722.201 908.866,716.154 L908.442,716.236 L953.775,708.236 C956.522,707.752 959.028,706.362 960.894,704.289 L972.894,690.955 C974.425,689.254 975.46,687.165 975.885,684.917 C985.071,636.363 990.388,520.088 991.436,358.674 C991.934,281.94 989.714,221.552 985.04,154.316 C984.229,142.648 981.637,107.627 981.404,104.369 C981.353,103.647 981.301,102.907 981.235,101.955 C981.223,101.783 981.104,100.062 981.069,99.56 C980.24,87.64 979.586,81.874 977.98,75.503 C975.696,66.444 971.741,59.141 965.331,53.331 C950.906,40.258 925.333,35.159 869.768,31.454 C867.745,31.319 865.664,31.18 863.481,31.033 C863.072,31.006 831.664,28.876 822.718,28.284 C768.667,24.708 730.349,22.884 683.815,22.095 C669.417,21.871 654.675,21.774 635.362,21.743 C630.208,21.735 626.087,21.732 616.816,21.728 C616.499,21.728 616.499,21.728 616.182,21.728 z M616.171,46.728 C616.489,46.728 616.489,46.728 616.806,46.728 C626.066,46.732 630.181,46.735 635.322,46.743 C654.529,46.773 669.164,46.87 683.408,47.092 C729.455,47.872 767.391,49.678 821.067,53.229 C829.989,53.82 861.376,55.948 861.803,55.977 C863.991,56.124 866.077,56.264 868.105,56.399 C917.227,59.674 940.143,64.244 948.542,71.855 C953.235,76.109 954.812,82.363 956.129,101.295 C956.164,101.792 956.283,103.509 956.295,103.685 C956.362,104.653 956.415,105.409 956.468,106.15 C956.704,109.461 959.294,144.45 960.1,156.049 C964.733,222.691 966.93,282.459 966.436,358.512 C965.399,518.295 960.119,633.766 951.321,680.27 L954.312,674.231 L942.312,687.565 L949.431,683.617 L904.097,691.617 C903.955,691.642 903.814,691.669 903.673,691.699 C876.363,697.498 844.606,701.708 806.391,704.901 C776.625,707.389 748.621,708.96 697.26,711.314 C694.851,711.425 693.412,711.491 688.403,711.719 C654.468,713.27 638.949,714.026 620.212,715.114 C579.68,717.467 449.623,716.563 405.631,714.113 C383.922,712.903 369.352,712.224 326.866,710.356 C269.724,707.843 242.199,706.378 211.368,703.893 C171.55,700.684 138.698,696.395 110.19,690.364 C91.856,686.485 87.687,684.477 83.146,678.048 C79.949,673.523 76.903,663.305 74.361,647.837 C72.186,634.602 70.603,620.062 68.17,593.128 C68.063,591.945 67.012,580.24 66.695,576.749 C66.115,570.377 65.622,565.109 65.127,560.048 C64.759,556.289 64.398,552.723 64.034,549.279 C60.124,512.294 56.735,435.62 55.594,359.307 C54.35,276.164 55.947,208.902 60.337,182.014 C60.606,180.362 60.74,178.606 60.899,175.45 C60.931,174.809 61.076,171.743 61.121,170.855 C61.218,168.926 61.313,167.267 61.426,165.608 C61.715,161.379 62.102,157.491 62.644,153.694 C63.326,148.916 63.953,143.868 64.587,138.171 C64.911,135.255 65.232,132.216 65.598,128.622 C65.741,127.223 65.885,125.797 66.073,123.919 C66.061,124.039 66.434,120.318 66.538,119.283 C68.617,98.618 69.968,88.664 72.185,80.116 C73.383,75.497 74.708,72.122 76.045,70.045 C76.506,69.329 76.892,68.883 77.166,68.662 C77.195,68.638 77.1,68.687 76.978,68.717 C94.693,64.273 139.534,59.803 202.063,55.678 C231.897,53.71 263.88,51.94 295.865,50.397 C307.062,49.856 317.458,49.383 326.787,48.98 C330.05,48.839 332.947,48.717 335.443,48.614 C336.315,48.578 337.075,48.547 337.718,48.521 C338.103,48.506 338.364,48.495 338.492,48.49 L338.119,48.499 C463.65,47.309 537.095,46.797 616.188,46.728 z" fill="rgba(0,0,0,0.75)" clip-path="url(#Clip_1)" filter="url(#Shadow_2)"/>
    </g>
  </g>
</svg>
