<?xml version="1.0" encoding="UTF-8"?>
<!DOCTYPE svg PUBLIC "-//W3C//DTD SVG 1.1//EN" "http://www.w3.org/Graphics/SVG/1.1/DTD/svg11.dtd">
<svg version="1.1" xmlns="http://www.w3.org/2000/svg" xmlns:xlink="http://www.w3.org/1999/xlink" x="0" y="0" width="924.756" height="687.386" viewBox="0, 0, 924.756, 687.386">
  <defs>
    <radialGradient id="Gradient_1" gradientUnits="userSpaceOnUse" cx="468.222" cy="347.693" r="462.378">
      <stop offset="0" stop-color="#000000"/>
      <stop offset="1" stop-color="#FFFFFF"/>
    </radialGradient>
  </defs>
  <g id="Layer_1" transform="translate(-5.844, -4)">
    <path d="M363.621,689.009 C402.424,691.171 532.607,692.572 576.955,689.997 C673.504,684.392 779.009,683.559 858.767,666.623 L903.541,658.721 L915.393,645.552 C924.611,596.828 929.55,477.651 930.537,325.551 C931.32,204.948 924.611,130.653 920.661,75.344 C919.344,56.906 918.971,42.414 908.809,33.204 C896.757,22.282 869.435,17.937 821.895,14.768 C762.635,10.817 710.447,6.763 638.849,5.55 C560.075,1.619 318.405,6.333 297.511,6.939 C276.617,7.545 84.287,15.341 36.706,27.278 C18.454,31.857 19.318,79.517 13.332,121.435 C11.508,134.205 11.721,145.299 11.09,149.162 C1.349,208.823 6.726,440.236 14.648,515.182 C20.557,571.077 22.626,629.652 35.718,648.186 C42.762,658.157 50.243,661.135 69.957,665.306 C151.606,682.58 257.13,683.078 363.621,689.009 z" fill="url(#Gradient_1)" id="path2529"/>
  </g>
</svg>
