<?xml version="1.0" encoding="UTF-8"?>
<!DOCTYPE svg PUBLIC "-//W3C//DTD SVG 1.1//EN" "http://www.w3.org/Graphics/SVG/1.1/DTD/svg11.dtd">
<svg version="1.1" xmlns="http://www.w3.org/2000/svg" xmlns:xlink="http://www.w3.org/1999/xlink" x="0" y="0" width="928.156" height="687.386" viewBox="0, 0, 928.156, 687.386">
  <defs>
    <radialGradient id="Gradient_1" gradientUnits="userSpaceOnUse" cx="471.118" cy="368.317" r="637.409" gradientTransform="matrix(1, 0, 0, 1, -5.844, -4)">
      <stop offset="0.701" stop-color="#000000"/>
      <stop offset="1" stop-color="#E9E9E9" stop-opacity="0"/>
    </radialGradient>
  </defs>
  <g id="Layer_1">
    <path d="M357.777,685.009 C377.179,686.09 419.425,686.981 462.365,687.279 C505.304,687.578 548.937,687.284 571.111,685.997 C619.386,683.195 669.899,681.585 718.314,678.559 C766.728,675.533 813.044,671.091 852.923,662.623 L875.31,658.672 L897.697,654.721 L903.623,648.137 L909.549,641.552 C914.158,617.19 917.697,575.215 920.208,520.317 C922.718,465.42 928.156,319 928.156,319 C928.156,319 923.603,212.525 921.53,171.962 C919.457,131.4 916.792,98.999 914.817,71.344 C914.158,62.125 913.736,53.892 912.208,46.813 C910.679,39.734 908.046,33.809 902.965,29.204 C896.939,23.743 887.096,19.926 872.816,17.079 C858.536,14.231 839.821,12.352 816.051,10.768 C786.421,8.792 758.559,6.791 729.155,5.132 C699.751,3.473 668.804,2.156 633.005,1.55 C593.618,-0.416 513.507,-0.22 440.631,0.543 C367.755,1.306 302.114,2.636 291.667,2.939 C281.22,3.242 227.914,5.343 171.272,8.859 C114.63,12.376 54.653,17.31 30.862,23.278 C21.736,25.568 17.389,38.627 14.575,56.355 C11.761,74.082 10.481,96.476 7.488,117.435 C6.576,123.82 6.173,129.786 5.919,134.639 C5.666,139.491 5.561,143.231 5.246,145.162 C0.376,174.993 -0.715,247.761 0.401,322.44 C1.518,397.119 4.843,473.709 8.804,511.182 C11.759,539.129 13.753,567.747 16.646,591.694 C19.538,615.642 23.328,634.919 29.874,644.186 C33.396,649.172 37.027,652.409 42.242,654.921 C47.457,657.433 54.256,659.22 64.113,661.306 C104.938,669.943 151.731,674.386 201.629,677.411 C251.528,680.436 304.531,682.044 357.777,685.009 z" fill="url(#Gradient_1)" id="screen"/>
  </g>
</svg>
