<?xml version="1.0" encoding="UTF-8"?>
<!DOCTYPE svg PUBLIC "-//W3C//DTD SVG 1.1//EN" "http://www.w3.org/Graphics/SVG/1.1/DTD/svg11.dtd">
<svg version="1.1" xmlns="http://www.w3.org/2000/svg" xmlns:xlink="http://www.w3.org/1999/xlink" x="0" y="0" width="930.467" height="687.386" viewBox="0, 0, 930.467, 687.386">
  <defs>
    <radialGradient id="Gradient_1" gradientUnits="userSpaceOnUse" cx="472.276" cy="368.317" r="638.996">
      <stop offset="0.769" stop-color="#000000"/>
      <stop offset="1" stop-color="#E9E9E9" stop-opacity="0"/>
    </radialGradient>
    <clipPath id="Clip_1">
      <path d="M542.263,4.001 C574.459,4.144 606.679,4.048 638.849,5.55 C674.648,6.156 705.595,7.473 734.999,9.132 C764.403,10.791 792.265,12.792 821.895,14.768 C845.665,16.352 864.38,18.231 878.66,21.079 C892.94,23.926 902.783,27.743 908.809,33.204 C913.89,37.809 916.523,43.734 918.052,50.813 C919.58,57.892 920.002,66.125 920.661,75.344 C922.636,102.999 927.927,133.437 930,174 C932.073,214.563 936.311,277 936.311,277 C936.311,277 934.51,464.103 932,519 C929.49,573.897 920.002,621.19 915.393,645.552 L909.467,652.137 L903.541,658.721 L881.154,662.672 L858.767,666.622 C818.888,675.091 772.572,679.533 724.158,682.559 C675.743,685.585 625.23,687.195 576.955,689.997 C554.781,691.284 511.148,691.578 468.209,691.279 C425.269,690.981 383.023,690.09 363.621,689.009 C310.375,686.044 257.372,684.436 207.473,681.411 C157.575,678.386 110.782,673.943 69.957,665.306 C60.1,663.22 53.301,661.433 48.086,658.921 C42.871,656.409 39.24,653.172 35.718,648.186 C29.172,638.919 25.382,619.642 22.49,595.694 C19.597,571.747 17.603,543.129 14.648,515.182 C10.687,477.709 7.362,401.119 6.245,326.44 C5.129,251.761 6.22,178.993 11.09,149.162 C11.405,147.231 11.51,143.491 11.763,138.639 C12.017,133.786 12.42,127.82 13.332,121.435 C16.325,100.476 17.605,78.082 20.419,60.354 C23.233,42.627 27.58,29.568 36.706,27.278 C60.497,21.31 120.474,16.376 177.116,12.859 C233.758,9.343 287.064,7.242 297.511,6.939 C307.958,6.636 373.599,5.306 446.475,4.543 C478.403,4.165 510.333,4.051 542.263,4.001 z"/>
    </clipPath>
    <filter id="Shadow_2">
      <feGaussianBlur in="SourceAlpha" stdDeviation="25"/>
      <feOffset dx="0" dy="0" result="offsetblur"/>
      <feFlood flood-color="#000000"/>
      <feComposite in2="offsetblur" operator="in"/>
    </filter>
  </defs>
  <g id="Layer_1" transform="translate(-5.844, -4)">
    <g id="path2529" opacity="0.98">
      <path d="M363.621,689.009 C383.023,690.09 425.269,690.981 468.209,691.279 C511.148,691.578 554.781,691.284 576.955,689.997 C625.23,687.195 675.743,685.585 724.158,682.559 C772.572,679.533 818.888,675.091 858.767,666.623 L881.154,662.672 L903.541,658.721 L909.467,652.137 L915.393,645.552 C920.002,621.19 929.49,573.897 932,519 C934.51,464.103 936.311,277 936.311,277 C936.311,277 932.073,214.563 930,174 C927.927,133.437 922.636,102.999 920.661,75.344 C920.002,66.125 919.58,57.892 918.052,50.813 C916.523,43.734 913.89,37.809 908.809,33.204 C902.783,27.743 892.94,23.926 878.66,21.079 C864.38,18.231 845.665,16.352 821.895,14.768 C792.265,12.792 764.403,10.791 734.999,9.132 C705.595,7.473 674.648,6.156 638.849,5.55 C599.462,3.584 519.351,3.78 446.475,4.543 C373.599,5.306 307.958,6.636 297.511,6.939 C287.064,7.242 233.758,9.343 177.116,12.859 C120.474,16.376 60.497,21.31 36.706,27.278 C27.58,29.568 23.233,42.627 20.419,60.355 C17.605,78.082 16.325,100.476 13.332,121.435 C12.42,127.82 12.017,133.786 11.763,138.639 C11.51,143.491 11.405,147.231 11.09,149.162 C6.22,178.993 5.129,251.761 6.245,326.44 C7.362,401.119 10.687,477.709 14.648,515.182 C17.603,543.129 19.597,571.747 22.49,595.694 C25.382,619.642 29.172,638.919 35.718,648.186 C39.24,653.172 42.871,656.409 48.086,658.921 C53.301,661.433 60.1,663.22 69.957,665.306 C110.782,673.943 157.575,678.386 207.473,681.411 C257.372,684.436 310.375,686.044 363.621,689.009 z" fill="url(#Gradient_1)"/>
      <g>
        <path d="M-45.156,-46.999 L987.311,-46.999 L987.311,742.386 L-45.156,742.386 z M542.263,4.001 C510.333,4.051 478.403,4.165 446.475,4.543 C373.599,5.306 307.958,6.636 297.511,6.939 C287.064,7.242 233.758,9.343 177.116,12.859 C120.474,16.376 60.497,21.31 36.706,27.278 C27.58,29.568 23.233,42.627 20.419,60.354 C17.605,78.082 16.325,100.476 13.332,121.435 C12.42,127.82 12.017,133.786 11.763,138.639 C11.51,143.491 11.405,147.231 11.09,149.162 C6.22,178.993 5.129,251.761 6.245,326.44 C7.362,401.119 10.687,477.709 14.648,515.182 C17.603,543.129 19.597,571.747 22.49,595.694 C25.382,619.642 29.172,638.919 35.718,648.186 C39.24,653.172 42.871,656.409 48.086,658.921 C53.301,661.433 60.1,663.22 69.957,665.306 C110.782,673.943 157.575,678.386 207.473,681.411 C257.372,684.436 310.375,686.044 363.621,689.009 C383.023,690.09 425.269,690.981 468.209,691.279 C511.148,691.578 554.781,691.284 576.955,689.997 C625.23,687.195 675.743,685.585 724.158,682.559 C772.572,679.533 818.888,675.091 858.767,666.622 L881.154,662.672 L903.541,658.721 L909.467,652.137 L915.393,645.552 C920.002,621.19 929.49,573.897 932,519 C934.51,464.103 936.311,277 936.311,277 C936.311,277 932.073,214.563 930,174 C927.927,133.437 922.636,102.999 920.661,75.344 C920.002,66.125 919.58,57.892 918.052,50.813 C916.523,43.734 913.89,37.809 908.809,33.204 C902.783,27.743 892.94,23.926 878.66,21.079 C864.38,18.231 845.665,16.352 821.895,14.768 C792.265,12.792 764.403,10.791 734.999,9.132 C705.595,7.473 674.648,6.156 638.849,5.55 C606.679,4.048 574.459,4.144 542.263,4.001 z" fill="rgba(0,0,0,0.75)" clip-path="url(#Clip_1)" filter="url(#Shadow_2)"/>
        <path d="M-45.156,-34.499 L987.311,-34.499 L974.811,-46.999 L974.811,742.386 L987.311,729.886 L-45.156,729.886 L-32.656,742.386 L-32.656,-46.999 L-45.156,-34.499 z M-45.156,-59.499 C-52.059,-59.499 -57.656,-53.903 -57.656,-46.999 L-57.656,742.386 C-57.656,749.29 -52.059,754.886 -45.156,754.886 L987.311,754.886 C994.215,754.886 999.811,749.29 999.811,742.386 L999.811,-46.999 C999.811,-53.903 994.215,-59.499 987.311,-59.499 L-45.156,-59.499 z M542.243,-8.499 C503.376,-8.439 474.606,-8.291 446.327,-7.956 C387.208,-7.337 315.866,-6.098 297.149,-5.556 C276.051,-4.944 221.776,-2.438 176.341,0.383 C106.318,4.731 55.739,9.616 33.664,15.154 C24.969,17.335 18.907,23.707 14.785,32.924 C11.839,39.511 9.765,47.739 8.074,58.395 C6.888,65.861 6.031,73.262 4.678,86.707 C4.575,87.734 4.206,91.416 4.219,91.292 C4.034,93.134 3.893,94.531 3.754,95.896 C3.399,99.377 3.089,102.308 2.778,105.104 C2.179,110.492 1.591,115.229 0.957,119.668 C0.113,125.577 -0.365,131.195 -0.72,137.986 C-0.788,139.296 -0.969,143.108 -0.985,143.417 C-1.093,145.567 -1.184,146.762 -1.247,147.147 C-5.909,175.705 -7.505,242.93 -6.253,326.627 C-5.116,402.687 -1.74,479.057 2.218,516.496 C2.57,519.83 2.921,523.288 3.278,526.939 C3.761,531.873 4.243,537.023 4.81,543.264 C5.122,546.696 6.159,558.247 6.266,559.428 C7.811,576.526 8.851,587.017 10.08,597.193 C13.637,626.641 17.903,644.63 25.509,655.398 C30.28,662.153 35.554,666.759 42.661,670.182 C48.647,673.066 55.562,675.037 67.37,677.535 C105.051,685.507 148.648,690.367 206.717,693.888 C228.326,695.198 247.626,696.132 285.425,697.794 C327.282,699.635 341.618,700.303 362.926,701.49 C382.309,702.57 424.35,703.475 468.122,703.779 C515.884,704.111 556.805,703.688 577.68,702.476 C596.049,701.41 611.309,700.665 644.723,699.139 C649.671,698.913 651.093,698.848 653.474,698.739 C685.702,697.261 704.82,696.292 724.937,695.035 C781.635,691.491 824.649,686.646 861.364,678.85 L860.94,678.932 L883.327,674.982 L905.714,671.031 C908.46,670.546 910.966,669.157 912.832,667.083 L918.758,660.499 L924.684,653.914 C926.215,652.213 927.25,650.125 927.675,647.876 C927.955,646.397 929.039,640.702 929.238,639.653 C929.919,636.067 930.483,633.06 931.047,630.005 C932.518,622.029 933.827,614.554 935.072,606.907 C939.895,577.285 943.158,548.627 944.487,519.571 C945.427,499.024 946.326,459.225 947.174,405.682 C947.619,377.557 948.022,347.427 948.374,317.298 C948.497,306.753 948.605,296.961 948.698,288.173 C948.73,285.097 948.758,282.366 948.782,280.011 C948.79,279.187 948.797,278.469 948.803,277.86 C948.809,277.247 948.809,277.247 948.81,277.12 C948.814,276.798 948.804,276.475 948.782,276.154 C948.779,276.102 948.779,276.102 948.761,275.842 C948.737,275.481 948.737,275.481 948.699,274.925 C948.631,273.918 948.553,272.746 948.464,271.419 C948.211,267.628 947.928,263.363 947.624,258.722 C946.755,245.462 945.885,231.839 945.074,218.619 C944.847,214.923 944.628,211.304 944.417,207.77 C943.638,194.757 942.985,183.163 942.484,173.362 C941.587,155.811 940.166,140.117 937.797,119.154 C937.636,117.73 935.647,100.465 935.124,95.692 C934.205,87.313 933.573,80.669 933.129,74.454 C933.078,73.741 933.027,73.01 932.961,72.07 C932.95,71.901 932.832,70.201 932.798,69.704 C932.064,59.16 931.511,53.926 930.27,48.176 C928.098,38.115 924.101,30.193 917.203,23.942 C909.26,16.743 897.672,12.124 881.105,8.82 C867.006,6.008 848.813,4.035 822.726,2.295 C820.728,2.162 818.671,2.024 816.514,1.879 C816.109,1.852 785.092,-0.251 776.258,-0.836 C760.972,-1.847 748.215,-2.642 735.703,-3.348 C702.675,-5.211 672.165,-6.387 639.061,-6.949 L639.432,-6.937 C620.173,-7.836 600.748,-8.219 573.913,-8.371 C568.628,-8.401 564.405,-8.418 554.903,-8.451 C548.61,-8.473 545.812,-8.484 542.319,-8.499 z M542.207,16.501 C545.712,16.516 548.515,16.527 554.816,16.549 C564.3,16.582 568.51,16.599 573.771,16.628 C600.294,16.779 619.414,17.156 638.266,18.036 C638.389,18.042 638.513,18.046 638.637,18.048 C671.396,18.603 701.581,19.767 734.295,21.612 C746.716,22.313 759.396,23.103 774.607,24.11 C783.418,24.693 814.414,26.795 814.836,26.823 C816.998,26.968 819.06,27.107 821.063,27.24 C846.152,28.913 863.427,30.787 876.215,33.337 C888.746,35.836 896.517,38.934 900.414,42.466 C903.022,44.829 904.682,48.119 905.833,53.451 C906.738,57.644 907.207,62.086 907.858,71.44 C907.892,71.93 908.009,73.626 908.021,73.8 C908.088,74.756 908.14,75.502 908.192,76.235 C908.662,82.812 909.323,89.749 910.272,98.415 C910.805,103.271 912.801,120.598 912.955,121.961 C915.271,142.459 916.65,157.685 917.516,174.638 C918.021,184.52 918.679,196.183 919.461,209.263 C919.673,212.809 919.894,216.442 920.121,220.15 C920.935,233.408 921.806,247.065 922.677,260.357 C922.982,265.01 923.266,269.285 923.52,273.087 C923.609,274.418 923.688,275.595 923.756,276.606 C923.794,277.165 923.794,277.165 923.818,277.529 C923.836,277.792 923.836,277.792 923.84,277.846 L923.812,276.88 C923.81,277.004 923.81,277.004 923.804,277.614 C923.798,278.221 923.791,278.938 923.783,279.76 C923.759,282.111 923.732,284.838 923.699,287.91 C923.607,296.689 923.499,306.471 923.376,317.005 C923.024,347.103 922.622,377.2 922.177,405.287 C921.334,458.567 920.437,498.222 919.513,518.429 C918.233,546.427 915.076,574.155 910.397,602.89 C909.183,610.349 907.903,617.656 906.462,625.47 C905.907,628.478 905.35,631.445 904.677,634.992 C904.48,636.028 903.394,641.733 903.111,643.229 L915.393,645.552 L906.102,637.19 L900.176,643.775 L894.25,650.359 L903.541,658.721 L901.369,646.411 L878.982,650.362 L856.595,654.313 C856.453,654.338 856.312,654.365 856.171,654.395 C820.894,661.886 778.958,666.61 723.378,670.083 C703.436,671.33 684.427,672.294 652.329,673.765 C649.95,673.874 648.529,673.939 643.582,674.165 C610.066,675.696 594.737,676.444 576.231,677.518 C556.063,678.689 515.532,679.108 468.296,678.779 C424.903,678.478 383.189,677.58 364.316,676.529 C342.875,675.334 328.484,674.664 286.524,672.819 C248.859,671.162 229.658,670.233 208.23,668.934 C151.287,665.482 108.78,660.743 72.545,653.076 C62.586,650.97 57.189,649.431 53.511,647.659 C50.357,646.14 48.322,644.363 45.928,640.974 C41.618,634.873 37.938,619.356 34.899,594.195 C33.709,584.337 32.688,574.041 31.165,557.178 C31.059,556.01 30.021,544.449 29.707,541.001 C29.135,534.707 28.648,529.503 28.159,524.504 C27.796,520.791 27.439,517.269 27.079,513.867 C23.218,477.345 19.871,401.621 18.744,326.253 C17.516,244.146 19.093,177.72 23.427,151.176 C23.694,149.536 23.826,147.798 23.984,144.674 C24.002,144.307 24.182,140.528 24.246,139.291 C24.566,133.182 24.985,128.249 25.706,123.202 C26.38,118.481 27,113.494 27.625,107.866 C27.945,104.985 28.262,101.983 28.625,98.433 C28.765,97.051 28.908,95.642 29.094,93.787 C29.082,93.907 29.45,90.23 29.553,89.209 C30.859,76.225 31.677,69.164 32.764,62.314 C34.141,53.641 35.736,47.312 37.606,43.131 C38.389,41.381 39.14,40.19 39.763,39.536 C39.91,39.381 39.998,39.309 40.028,39.29 C39.964,39.33 39.857,39.375 39.748,39.402 C59.688,34.4 109.721,29.568 177.891,25.335 C223.056,22.531 277.057,20.038 297.873,19.434 C316.413,18.896 387.611,17.66 446.606,17.042 C474.8,16.709 503.493,16.561 542.282,16.501 z" fill="rgba(0,0,0,0.75)" clip-path="url(#Clip_1)" filter="url(#Shadow_2)"/>
      </g>
    </g>
  </g>
</svg>
