<?xml version="1.0" encoding="UTF-8"?>
<!DOCTYPE svg PUBLIC "-//W3C//DTD SVG 1.1//EN" "http://www.w3.org/Graphics/SVG/1.1/DTD/svg11.dtd">
<svg version="1.1" xmlns="http://www.w3.org/2000/svg" xmlns:xlink="http://www.w3.org/1999/xlink" x="0" y="0" width="924.756" height="687.386" viewBox="0, 0, 924.756, 687.386">
  <defs>
    <clipPath id="Clip_1">
      <path d="M542.263,4.001 C574.459,4.144 606.679,4.048 638.849,5.55 C710.447,6.763 762.635,10.817 821.895,14.768 C869.435,17.937 896.757,22.282 908.809,33.204 C918.971,42.414 919.344,56.906 920.661,75.344 C924.611,130.653 931.32,204.948 930.537,325.551 C929.55,477.651 924.611,596.828 915.393,645.552 L903.541,658.721 L858.767,666.622 C779.009,683.559 673.504,684.392 576.955,689.997 C532.607,692.572 402.424,691.171 363.621,689.009 C257.13,683.078 151.606,682.58 69.957,665.306 C50.243,661.135 42.762,658.157 35.718,648.186 C22.626,629.652 20.557,571.077 14.648,515.182 C6.726,440.236 1.349,208.823 11.09,149.162 C11.721,145.299 11.508,134.205 13.332,121.435 C19.318,79.517 18.454,31.857 36.706,27.278 C84.287,15.341 276.617,7.545 297.511,6.939 C379.082,5.13 460.672,4.128 542.263,4.001 z"/>
    </clipPath>
    <filter id="Shadow_2">
      <feGaussianBlur in="SourceAlpha" stdDeviation="25"/>
      <feOffset dx="0" dy="0" result="offsetblur"/>
      <feFlood flood-color="#000000"/>
      <feComposite in2="offsetblur" operator="in"/>
    </filter>
  </defs>
  <g id="Layer_1" transform="translate(-5.844, -4)">
    <g id="path2529">
      <path d="M-45.156,-46.999 L981.6,-46.999 L981.6,742.386 L-45.156,742.386 z M542.263,4.001 C460.672,4.128 379.082,5.13 297.511,6.939 C276.617,7.545 84.287,15.341 36.706,27.278 C18.454,31.857 19.318,79.517 13.332,121.435 C11.508,134.205 11.721,145.299 11.09,149.162 C1.349,208.823 6.726,440.236 14.648,515.182 C20.557,571.077 22.626,629.652 35.718,648.186 C42.762,658.157 50.243,661.135 69.957,665.306 C151.606,682.58 257.13,683.078 363.621,689.009 C402.424,691.171 532.607,692.572 576.955,689.997 C673.504,684.392 779.009,683.559 858.767,666.622 L903.541,658.721 L915.393,645.552 C924.611,596.828 929.55,477.651 930.537,325.551 C931.32,204.948 924.611,130.653 920.661,75.344 C919.344,56.906 918.971,42.414 908.809,33.204 C896.757,22.282 869.435,17.937 821.895,14.768 C762.635,10.817 710.447,6.763 638.849,5.55 C606.679,4.048 574.459,4.144 542.263,4.001 z" fill="rgba(0,0,0,0.75)" clip-path="url(#Clip_1)" filter="url(#Shadow_2)"/>
      <path d="M-45.156,-34.499 L981.6,-34.499 L969.1,-46.999 L969.1,742.386 L981.6,729.886 L-45.156,729.886 L-32.656,742.386 L-32.656,-46.999 L-45.156,-34.499 z M-45.156,-59.499 C-52.059,-59.499 -57.656,-53.903 -57.656,-46.999 L-57.656,742.386 C-57.656,749.29 -52.059,754.886 -45.156,754.886 L981.6,754.886 C988.504,754.886 994.1,749.29 994.1,742.386 L994.1,-46.999 C994.1,-53.903 988.504,-59.499 981.6,-59.499 L-45.156,-59.499 z M542.243,-8.499 C461.376,-8.373 379.733,-7.388 297.234,-5.558 C276.052,-4.944 221.776,-2.438 176.341,0.383 C106.318,4.731 55.739,9.616 33.664,15.154 C27.04,16.816 21.801,21.053 17.899,27.113 C14.938,31.712 12.717,37.369 10.926,44.274 C8.298,54.405 6.866,64.96 4.678,86.708 C4.575,87.735 4.206,91.416 4.219,91.293 C4.034,93.135 3.893,94.531 3.754,95.897 C3.399,99.377 3.089,102.308 2.778,105.105 C2.179,110.492 1.591,115.229 0.957,119.668 C0.327,124.077 -0.113,128.509 -0.437,133.255 C-0.561,135.059 -0.663,136.84 -0.766,138.883 C-0.812,139.807 -0.955,142.834 -0.985,143.418 C-1.093,145.568 -1.184,146.762 -1.247,147.147 C-5.909,175.705 -7.505,242.93 -6.253,326.627 C-5.116,402.687 -1.74,479.057 2.218,516.496 C2.57,519.83 2.921,523.288 3.278,526.939 C3.761,531.873 4.243,537.023 4.81,543.263 C5.122,546.695 6.159,558.246 6.266,559.426 C8.723,586.626 10.33,601.391 12.609,615.254 C15.696,634.042 19.548,646.959 25.509,655.398 C34.467,668.081 43.697,672.527 67.37,677.535 C96.705,683.741 130.147,688.107 170.446,691.355 C201.296,693.841 228.686,695.299 285.423,697.794 C327.281,699.635 341.618,700.303 362.926,701.49 C407.258,703.959 536.633,704.859 577.68,702.476 C596.05,701.41 611.31,700.665 644.724,699.139 C649.672,698.913 651.094,698.848 653.475,698.739 C704.502,696.399 732.389,694.835 762.19,692.345 C800.889,689.111 833.231,684.824 861.364,678.85 L860.94,678.932 L905.714,671.031 C908.461,670.546 910.966,669.157 912.832,667.083 L924.684,653.914 C926.215,652.213 927.25,650.125 927.675,647.876 C936.75,599.909 942.002,485.064 943.037,325.632 C943.529,249.84 941.336,190.193 936.719,123.783 C935.918,112.259 933.359,77.67 933.129,74.454 C933.078,73.741 933.027,73.01 932.961,72.07 C932.95,71.9 932.832,70.2 932.798,69.704 C931.978,57.922 931.332,52.221 929.743,45.917 C927.48,36.942 923.559,29.702 917.203,23.942 C902.92,10.997 877.646,5.957 822.726,2.295 C820.728,2.162 818.673,2.025 816.516,1.88 C816.112,1.852 785.092,-0.251 776.256,-0.836 C722.87,-4.368 685.023,-6.17 639.061,-6.949 L639.432,-6.937 C620.173,-7.836 600.749,-8.219 573.917,-8.371 C568.63,-8.401 564.405,-8.418 554.899,-8.451 C548.608,-8.473 545.811,-8.483 542.318,-8.499 z M542.207,16.501 C545.711,16.516 548.513,16.527 554.812,16.549 C564.299,16.582 568.512,16.599 573.775,16.629 C600.294,16.779 619.415,17.156 638.266,18.036 C638.389,18.042 638.513,18.046 638.637,18.048 C684.13,18.819 721.594,20.602 774.606,24.11 C783.417,24.693 814.417,26.795 814.838,26.823 C817,26.969 819.06,27.107 821.063,27.24 C869.54,30.472 892.157,34.982 900.414,42.466 C905.009,46.63 906.56,52.781 907.858,71.439 C907.892,71.929 908.009,73.625 908.021,73.799 C908.088,74.755 908.14,75.502 908.192,76.235 C908.426,79.505 910.983,114.061 911.779,125.517 C916.355,191.333 918.525,250.36 918.037,325.47 C917.013,483.27 911.798,597.312 903.111,643.229 L906.102,637.19 L894.25,650.359 L901.369,646.411 L856.595,654.313 C856.453,654.338 856.312,654.365 856.171,654.395 C829.205,660.121 797.846,664.278 760.109,667.432 C730.712,669.888 703.056,671.44 652.33,673.765 C649.951,673.874 648.53,673.939 643.583,674.165 C610.066,675.696 594.737,676.444 576.231,677.518 C536.206,679.842 407.759,678.949 364.316,676.529 C342.874,675.334 328.483,674.664 286.521,672.818 C230.086,670.336 202.902,668.89 172.455,666.436 C133.133,663.267 100.694,659.032 72.545,653.076 C54.471,649.253 50.386,647.285 45.928,640.974 C42.788,636.529 39.785,626.456 37.278,611.2 C35.13,598.133 33.567,583.775 31.165,557.177 C31.059,556.009 30.021,544.448 29.707,541 C29.135,534.707 28.648,529.504 28.159,524.505 C27.796,520.792 27.439,517.269 27.079,513.867 C23.218,477.345 19.871,401.62 18.744,326.253 C17.516,244.146 19.093,177.72 23.427,151.176 C23.694,149.537 23.826,147.799 23.984,144.675 C24.015,144.042 24.159,141.014 24.203,140.137 C24.299,138.233 24.393,136.596 24.505,134.958 C24.789,130.785 25.171,126.948 25.706,123.202 C26.38,118.481 27,113.494 27.625,107.866 C27.945,104.985 28.262,101.983 28.624,98.433 C28.765,97.052 28.908,95.643 29.094,93.788 C29.082,93.907 29.45,90.231 29.553,89.21 C31.605,68.808 32.939,58.981 35.125,50.55 C36.305,46.002 37.608,42.683 38.919,40.648 C39.365,39.954 39.736,39.526 39.993,39.318 C40.005,39.308 39.891,39.366 39.748,39.402 C59.688,34.4 109.721,29.568 177.891,25.335 C223.056,22.531 277.057,20.037 297.873,19.434 C380.117,17.61 461.588,16.626 542.282,16.501 z" fill="rgba(0,0,0,0.75)" clip-path="url(#Clip_1)" filter="url(#Shadow_2)"/>
    </g>
  </g>
</svg>
