<?xml version="1.0" encoding="UTF-8"?>
<!DOCTYPE svg PUBLIC "-//W3C//DTD SVG 1.1//EN" "http://www.w3.org/Graphics/SVG/1.1/DTD/svg11.dtd">
<svg version="1.1" xmlns="http://www.w3.org/2000/svg" xmlns:xlink="http://www.w3.org/1999/xlink" x="0" y="0" width="936.311" height="695.976" viewBox="0, 0, 936.311, 695.976">
  <defs>
    <clipPath id="Clip_1">
      <path d="M541.966,-1.588 C574.564,-1.443 607.187,-1.542 639.758,-0.02 C712.252,1.208 765.092,5.313 825.092,9.313 C873.226,12.522 900.89,16.921 913.092,27.98 C923.381,37.305 923.758,51.978 925.092,70.646 C929.092,126.646 935.885,201.87 935.092,323.98 C934.092,477.98 929.092,598.646 919.758,647.98 L907.758,661.313 L862.425,669.313 C781.67,686.461 674.847,687.305 577.092,692.98 C532.189,695.587 400.38,694.168 361.092,691.98 C253.27,685.974 146.427,685.47 63.758,667.98 C43.798,663.757 36.223,660.742 29.092,650.646 C15.836,631.881 13.741,572.574 7.758,515.98 C-0.263,440.098 -5.707,205.793 4.155,145.386 C4.794,141.476 4.579,130.243 6.425,117.313 C12.486,74.872 11.612,26.616 30.092,21.98 C78.267,9.894 273,2 294.155,1.386 C376.746,-0.445 459.355,-1.46 541.966,-1.588 z"/>
    </clipPath>
    <filter id="Shadow_2">
      <feGaussianBlur in="SourceAlpha" stdDeviation="25"/>
      <feOffset dx="0" dy="0" result="offsetblur"/>
      <feFlood flood-color="#000000"/>
      <feComposite in2="offsetblur" operator="in"/>
    </filter>
  </defs>
  <g id="Layer_1" transform="translate(1.156, 1.589)">
    <g id="path2529">
      <path d="M-52.156,-52.588 L986.155,-52.588 L986.155,745.386 L-52.156,745.386 z M541.966,-1.588 C459.355,-1.46 376.746,-0.445 294.155,1.386 C273,2 78.267,9.894 30.092,21.98 C11.612,26.616 12.486,74.872 6.425,117.313 C4.579,130.243 4.794,141.476 4.155,145.386 C-5.707,205.793 -0.263,440.098 7.758,515.98 C13.741,572.574 15.836,631.881 29.092,650.646 C36.223,660.742 43.798,663.757 63.758,667.98 C146.427,685.47 253.27,685.974 361.092,691.98 C400.38,694.168 532.189,695.587 577.092,692.98 C674.847,687.305 781.67,686.461 862.425,669.313 L907.758,661.313 L919.758,647.98 C929.092,598.646 934.092,477.98 935.092,323.98 C935.885,201.87 929.092,126.646 925.092,70.646 C923.758,51.978 923.381,37.305 913.092,27.98 C900.89,16.921 873.226,12.522 825.092,9.313 C765.092,5.313 712.252,1.208 639.758,-0.02 C607.187,-1.542 574.564,-1.443 541.966,-1.588 z" fill="rgba(0,0,0,0.75)" clip-path="url(#Clip_1)" filter="url(#Shadow_2)"/>
      <path d="M-52.156,-40.088 L986.155,-40.088 L973.655,-52.588 L973.655,745.386 L986.155,732.886 L-52.156,732.886 L-39.656,745.386 L-39.656,-52.588 L-52.156,-40.088 z M-52.156,-65.088 C-59.059,-65.088 -64.656,-59.492 -64.656,-52.588 L-64.656,745.386 C-64.656,752.29 -59.059,757.886 -52.156,757.886 L986.155,757.886 C993.059,757.886 998.655,752.29 998.655,745.386 L998.655,-52.588 C998.655,-59.492 993.059,-65.088 986.155,-65.088 L-52.156,-65.088 z M541.946,-14.088 C460.062,-13.961 377.4,-12.963 293.878,-11.111 C272.433,-10.489 217.482,-7.951 171.481,-5.095 C100.595,-0.694 49.387,4.251 27.05,9.855 C20.385,11.528 15.112,15.792 11.181,21.897 C8.193,26.537 5.95,32.25 4.141,39.227 C1.483,49.474 0.033,60.156 -2.181,82.168 C-2.285,83.208 -2.659,86.935 -2.646,86.81 C-2.834,88.675 -2.976,90.089 -3.117,91.471 C-3.477,94.996 -3.79,97.964 -4.105,100.796 C-4.711,106.252 -5.307,111.05 -5.949,115.546 C-6.586,120.006 -7.032,124.49 -7.36,129.291 C-7.485,131.117 -7.588,132.919 -7.692,134.987 C-7.739,135.922 -7.884,138.986 -7.914,139.579 C-8.024,141.761 -8.116,142.974 -8.181,143.372 C-12.9,172.274 -14.515,240.334 -13.248,325.067 C-12.096,402.073 -8.679,479.393 -4.672,517.294 C-4.315,520.67 -3.96,524.172 -3.598,527.869 C-3.11,532.865 -2.622,538.079 -2.047,544.398 C-1.731,547.873 -0.681,559.568 -0.573,560.763 C1.914,588.299 3.541,603.246 5.847,617.277 C8.97,636.278 12.864,649.339 18.882,657.858 C27.925,670.659 37.237,675.146 61.171,680.209 C90.866,686.491 124.719,690.911 165.516,694.199 C196.748,696.716 224.479,698.192 281.923,700.718 C324.305,702.582 338.821,703.259 360.397,704.46 C405.277,706.96 536.263,707.871 577.816,705.459 C596.416,704.379 611.867,703.625 645.699,702.08 C650.71,701.851 652.149,701.785 654.56,701.675 C706.222,699.306 734.457,697.722 764.628,695.201 C803.805,691.927 836.544,687.587 865.022,681.54 L864.597,681.623 L909.931,673.623 C912.678,673.138 915.184,671.748 917.05,669.675 L929.05,656.342 C930.581,654.641 931.615,652.552 932.041,650.303 C941.226,601.749 946.543,485.474 947.591,324.061 C948.09,247.326 945.869,186.938 941.195,119.702 C940.384,108.034 937.793,73.013 937.56,69.756 C937.508,69.034 937.456,68.294 937.39,67.342 C937.378,67.17 937.259,65.449 937.224,64.946 C936.395,53.027 935.742,47.26 934.136,40.89 C931.852,31.83 927.896,24.527 921.486,18.718 C907.062,5.645 881.489,0.545 825.923,-3.159 C823.899,-3.294 821.816,-3.434 819.631,-3.581 C819.224,-3.608 787.818,-5.738 778.873,-6.33 C724.822,-9.906 686.504,-11.73 639.97,-12.518 L640.342,-12.507 C620.856,-13.417 601.203,-13.804 574.048,-13.958 C568.704,-13.989 564.434,-14.006 554.826,-14.039 C548.423,-14.062 545.576,-14.072 542.021,-14.088 z M541.91,10.912 C545.476,10.927 548.328,10.938 554.739,10.96 C564.329,10.994 568.587,11.011 573.906,11.041 C600.748,11.194 620.098,11.575 639.175,12.466 C639.299,12.472 639.423,12.476 639.547,12.478 C685.611,13.259 723.546,15.064 777.223,18.616 C786.143,19.206 817.529,21.334 817.953,21.363 C820.143,21.51 822.231,21.65 824.26,21.785 C873.383,25.06 896.299,29.63 904.697,37.242 C909.391,41.496 910.968,47.75 912.285,66.681 C912.319,67.178 912.438,68.895 912.45,69.071 C912.517,70.039 912.57,70.795 912.623,71.537 C912.86,74.848 915.449,109.836 916.255,121.436 C920.888,188.078 923.086,247.846 922.592,323.899 C921.555,483.681 916.274,599.152 907.476,645.656 L910.467,639.618 L898.467,652.951 L905.586,649.003 L860.253,657.003 C860.111,657.028 859.97,657.056 859.829,657.086 C832.519,662.885 800.762,667.095 762.546,670.288 C732.78,672.775 704.776,674.346 653.415,676.701 C651.006,676.811 649.567,676.877 644.558,677.106 C610.624,678.656 595.104,679.413 576.367,680.501 C535.836,682.854 405.778,681.949 361.787,679.499 C340.078,678.29 325.507,677.611 283.022,675.742 C225.88,673.229 198.354,671.764 167.524,669.28 C127.705,666.071 94.854,661.782 66.346,655.75 C48.011,651.872 43.843,649.863 39.301,643.434 C36.105,638.909 33.058,628.692 30.516,613.223 C28.341,599.988 26.759,585.448 24.325,558.514 C24.219,557.331 23.167,545.626 22.85,542.135 C22.271,535.764 21.778,530.495 21.283,525.435 C20.915,521.676 20.553,518.109 20.189,514.666 C16.279,477.681 12.89,401.006 11.749,324.693 C10.506,241.55 12.102,174.289 16.492,147.401 C16.762,145.749 16.895,143.992 17.054,140.836 C17.086,140.195 17.232,137.129 17.276,136.241 C17.373,134.312 17.469,132.653 17.582,130.994 C17.871,126.766 18.257,122.877 18.8,119.08 C19.482,114.302 20.109,109.254 20.742,103.558 C21.066,100.641 21.387,97.602 21.754,94.008 C21.896,92.61 22.04,91.183 22.229,89.305 C22.217,89.426 22.59,85.704 22.694,84.67 C24.772,64.005 26.123,54.05 28.34,45.503 C29.538,40.884 30.863,37.508 32.2,35.432 C32.661,34.716 33.048,34.27 33.322,34.048 C33.351,34.025 33.256,34.073 33.133,34.104 C53.336,29.036 103.998,24.143 173.031,19.857 C218.762,17.017 273.439,14.493 294.518,13.881 C377.784,12.035 460.275,11.039 541.985,10.912 z" fill="rgba(0,0,0,0.75)" clip-path="url(#Clip_1)" filter="url(#Shadow_2)"/>
    </g>
  </g>
</svg>
