<?xml version="1.0" encoding="UTF-8"?>
<!DOCTYPE svg PUBLIC "-//W3C//DTD SVG 1.1//EN" "http://www.w3.org/Graphics/SVG/1.1/DTD/svg11.dtd">
<svg version="1.1" xmlns="http://www.w3.org/2000/svg" xmlns:xlink="http://www.w3.org/1999/xlink" x="0" y="0" width="936.311" height="695.704" viewBox="0, 0, 936.311, 695.704">
  <g id="Layer_1" transform="translate(-42.689, -33.296)">
    <path d="M404.936,726.593 C444.224,728.782 576.033,730.2 620.936,727.593 C718.691,721.918 825.515,721.074 906.27,703.927 L951.603,695.927 L963.603,682.593 C972.936,633.26 977.936,512.593 978.936,358.593 C979.729,236.483 972.936,161.26 968.936,105.26 C967.603,86.591 967.225,71.918 956.936,62.593 C944.734,51.534 917.07,47.136 868.936,43.927 C808.936,39.927 756.096,35.822 683.603,34.593 C604.936,33.26 414,32 338,36 C248.526,40.709 122.112,44.507 73.936,56.593 C55.456,61.23 56.33,109.485 50.27,151.927 C48.423,164.857 48.639,176.089 48,180 C38.138,240.407 43.581,474.712 51.603,550.593 C57.585,607.187 59.681,666.494 72.936,685.26 C80.068,695.355 87.642,698.37 107.603,702.593 C190.272,720.083 297.114,720.588 404.936,726.593 z" fill="#0C0C0C" id="path2529"/>
  </g>
</svg>
