<?xml version="1.0" encoding="UTF-8"?>
<!DOCTYPE svg PUBLIC "-//W3C//DTD SVG 1.1//EN" "http://www.w3.org/Graphics/SVG/1.1/DTD/svg11.dtd">
<svg version="1.1" xmlns="http://www.w3.org/2000/svg" xmlns:xlink="http://www.w3.org/1999/xlink" x="0" y="0" width="928.156" height="687.386" viewBox="0, 0, 928.156, 687.386">
  <defs>
    <radialGradient id="Gradient_1" gradientUnits="userSpaceOnUse" cx="471.118" cy="368.317" r="637.409">
      <stop offset="0.701" stop-color="#000000"/>
      <stop offset="1" stop-color="#E9E9E9" stop-opacity="0"/>
    </radialGradient>
  </defs>
  <g id="Layer_1" transform="translate(-5.844, -4)">
    <path d="M363.621,689.009 C383.023,690.09 425.269,690.981 468.209,691.279 C511.148,691.578 554.781,691.284 576.955,689.997 C625.23,687.195 675.743,685.585 724.158,682.559 C772.572,679.533 818.888,675.091 858.767,666.623 L881.154,662.672 L903.541,658.721 L909.467,652.137 L915.393,645.552 C920.002,621.19 923.541,579.215 926.052,524.317 C928.562,469.42 934,323 934,323 C934,323 929.447,216.525 927.374,175.962 C925.301,135.4 922.636,102.999 920.661,75.344 C920.002,66.125 919.58,57.892 918.052,50.813 C916.523,43.734 913.89,37.809 908.809,33.204 C902.783,27.743 892.94,23.926 878.66,21.079 C864.38,18.231 845.665,16.352 821.895,14.768 C792.265,12.792 764.403,10.791 734.999,9.132 C705.595,7.473 674.648,6.156 638.849,5.55 C599.462,3.584 519.351,3.78 446.475,4.543 C373.599,5.306 307.958,6.636 297.511,6.939 C287.064,7.242 233.758,9.343 177.116,12.859 C120.474,16.376 60.497,21.31 36.706,27.278 C27.58,29.568 23.233,42.627 20.419,60.355 C17.605,78.082 16.325,100.476 13.332,121.435 C12.42,127.82 12.017,133.786 11.763,138.639 C11.51,143.491 11.405,147.231 11.09,149.162 C6.22,178.993 5.129,251.761 6.245,326.44 C7.362,401.119 10.687,477.709 14.648,515.182 C17.603,543.129 19.597,571.747 22.49,595.694 C25.382,619.642 29.172,638.919 35.718,648.186 C39.24,653.172 42.871,656.409 48.086,658.921 C53.301,661.433 60.1,663.22 69.957,665.306 C110.782,673.943 157.575,678.386 207.473,681.411 C257.372,684.436 310.375,686.044 363.621,689.009 z" fill="url(#Gradient_1)" id="path2529"/>
  </g>
</svg>
